<svg xmlns="http://www.w3.org/2000/svg" version="1.1" xmlns:xlink="http://www.w3.org/1999/xlink" xmlns:svgjs="http://svgjs.com/svgjs" width="1920" height="1080" preserveAspectRatio="none" viewBox="0 0 1920 1080"><g mask="url(&quot;#SvgjsMask1034&quot;)" fill="none"><rect width="1920" height="1080" x="0" y="0" fill="rgba(1, 109, 41, 1)"></rect><path d="M1341.7359008724343 1040.1881816340128L1513.4740644097428 936.9974823803292 1410.283365156059 765.2593188430208 1238.5452016187508 868.4500180967044z" fill="rgba(236, 217, 150, 1)" class="triangle-float3"></path><path d="M144.17145352284294 546.5606040182149L407.2794552177311 632.0495760053649 492.76842720488116 368.94157431047677 229.66042550999293 283.45260232332674z" fill="rgba(236, 217, 150, 1)" class="triangle-float2"></path><path d="M1982.1108927689575 847.8011181954862L1810.753650270842 593.7535587958075 1556.7060908711633 765.110801293923 1728.0633333692788 1019.1583606936018z" fill="rgba(236, 217, 150, 1)" class="triangle-float2"></path><path d="M1301.3105368035401 569.3052587612276L1104.7411126553416 722.8821244589175 1258.3179783530315 919.4515486071159 1454.88740250123 765.874682909426z" fill="rgba(236, 217, 150, 1)" class="triangle-float1"></path><path d="M768.6822762790982 650.9370143408573L1005.1188103297285 466.212548706034 820.3943446949052 229.77601465540374 583.9578106442749 414.5004802902271z" fill="rgba(236, 217, 150, 1)" class="triangle-float1"></path><path d="M531.5880635637076 733.7846352040701L329.3665471616859 832.414658862542 427.9965708201578 1034.6361752645637 630.2180872221794 936.0061516060919z" fill="rgba(236, 217, 150, 1)" class="triangle-float2"></path><path d="M2029.1701106198873 698.0502241695478L2003.6712942593242 516.6167182809634 1822.2377883707397 542.1155346415263 1847.7366047313028 723.5490405301108z" fill="rgba(236, 217, 150, 1)" class="triangle-float3"></path><path d="M543.117963420309 459.8377548139509L839.1525757453135 412.9504784241639 792.2652993555266 116.91586609915942 496.23068703052206 163.80314248894638z" fill="rgba(236, 217, 150, 1)" class="triangle-float1"></path><path d="M1492.8317166019228 777.9538358257776L1807.2295495482967 850.5382948119038 1879.814008534423 536.1404618655299 1565.416175588049 463.5560028794037z" fill="rgba(236, 217, 150, 1)" class="triangle-float1"></path><path d="M1546.049512774818 464.1439061957201L1491.6365208475663 184.2133300554177 1211.7059447072638 238.62632198266937 1266.1189366345156 518.5568981229718z" fill="rgba(236, 217, 150, 1)" class="triangle-float2"></path><path d="M-9.516699671148004 563.521399544954L151.07479256015205 467.02829611229527 54.58168912749336 306.4368038809953-106.00980310380668 402.9299073136539z" fill="rgba(236, 217, 150, 1)" class="triangle-float3"></path></g><defs><mask id="SvgjsMask1034"><rect width="1920" height="1080" fill="#ffffff"></rect></mask><style>
            @keyframes float1 {
                0%{transform: translate(0, 0)}
                50%{transform: translate(-10px, 0)}
                100%{transform: translate(0, 0)}
            }

            .triangle-float1 {
                animation: float1 5s infinite;
            }

            @keyframes float2 {
                0%{transform: translate(0, 0)}
                50%{transform: translate(-5px, -5px)}
                100%{transform: translate(0, 0)}
            }

            .triangle-float2 {
                animation: float2 4s infinite;
            }

            @keyframes float3 {
                0%{transform: translate(0, 0)}
                50%{transform: translate(0, -10px)}
                100%{transform: translate(0, 0)}
            }

            .triangle-float3 {
                animation: float3 6s infinite;
            }
        </style></defs></svg>