<?xml version="1.0" encoding="UTF-8" standalone="no"?>
<!-- Created with Inkscape (http://www.inkscape.org/) -->

<svg
   width="235.714"
   height="50"
   viewBox="0 0 62.366025 13.229171"
   version="1.1"
   id="svg13807"
   inkscape:version="1.1.2 (b8e25be833, 2022-02-05)"
   sodipodi:docname="kiriki-brand-light.svg"
   xmlns:inkscape="http://www.inkscape.org/namespaces/inkscape"
   xmlns:sodipodi="http://sodipodi.sourceforge.net/DTD/sodipodi-0.dtd"
   xmlns="http://www.w3.org/2000/svg"
   xmlns:svg="http://www.w3.org/2000/svg">
  <sodipodi:namedview
     id="namedview13809"
     pagecolor="#505050"
     bordercolor="#eeeeee"
     borderopacity="1"
     inkscape:pageshadow="0"
     inkscape:pageopacity="0"
     inkscape:pagecheckerboard="0"
     inkscape:document-units="px"
     showgrid="false"
     units="px"
     inkscape:zoom="2.5620932"
     inkscape:cx="136.80221"
     inkscape:cy="94.063713"
     inkscape:window-width="1920"
     inkscape:window-height="1017"
     inkscape:window-x="-8"
     inkscape:window-y="-8"
     inkscape:window-maximized="1"
     inkscape:current-layer="layer1"
     width="235.714px" />
  <defs
     id="defs13804" />
  <g
     inkscape:label="Capa 1"
     inkscape:groupmode="layer"
     id="layer1">
    <path
       d="m 27.919707,8.1999551 c 1.573845,-0.623046 2.695911,-2.152606 2.695911,-3.947907 C 30.615618,1.9072251 28.708401,8.4820915e-8 26.36358,8.4820915e-8 H 22.111541 C 21.58978,8.4820915e-8 21.166643,0.42313908 21.166643,0.94490508 V 12.283681 c 0,0.521766 0.423137,0.944905 0.944898,0.944905 0.52176,0 0.944897,-0.423139 0.944897,-0.944905 V 8.5040851 h 2.758805 l 3.085682,4.3288159 c 0.184549,0.258376 0.475106,0.396266 0.770386,0.396266 0.189629,0 0.381206,-0.05677 0.547745,-0.175337 0.424909,-0.303246 0.523533,-0.893218 0.220987,-1.318125 z m -4.863269,-6.309866 h 3.307142 c 1.302482,0 2.362243,1.059772 2.362243,2.36225 0,1.30249 -1.059761,2.335668 -2.362243,2.335668 h -3.307142 z"
       id="path13868"
       style="fill:#849bf0;fill-opacity:1;stroke-width:0.264582" />
    <path
       d="m 41.199354,12.28422 c 0,0.521789 -0.422564,0.944946 -0.944937,0.944946 h -7.559515 c -0.522373,0 -0.944939,-0.423157 -0.944939,-0.944946 0,-0.521777 0.422566,-0.944935 0.944939,-0.944935 H 35.52972 V 1.8898811 h -2.834818 c -0.522373,0 -0.944939,-0.423158 -0.944939,-0.94494702 0,-0.521777 0.422566,-0.944933995179089 0.944939,-0.944933995179089 h 7.559515 c 0.522373,0 0.944937,0.423156995179089 0.944937,0.944933995179089 0,0.52178902 -0.422564,0.94494702 -0.944937,0.94494702 h -2.834819 v 9.4494039 h 2.834819 c 0.522668,0 0.944937,0.422262 0.944937,0.944935 z"
       id="path13877"
       style="fill:#849bf0;fill-opacity:1;stroke-width:0.264584" />
    <path
       d="m 51.613867,11.746339 c 0.29705,0.429038 0.1901,1.017824 -0.238997,1.314873 -0.164234,0.113506 -0.351676,0.167955 -0.537111,0.167955 -0.300002,0 -0.594098,-0.142088 -0.777761,-0.406893 l -3.944204,-5.6970389 -1.89273,1.937025 v 3.2214839 c 0,0.521757 -0.422543,0.944891 -0.94489,0.944891 -0.522346,0 -0.944889,-0.423134 -0.944889,-0.944891 V 0.94506308 c 0,-0.521461 0.422543,-0.94459499518 0.944889,-0.94459499518 0.522347,0 0.94489,0.42313399518 0.94489,0.94488999518 V 6.3578071 l 5.938037,-6.07387202 c 0.363487,-0.372346 0.963491,-0.379728 1.336132,-0.01476 0.37264,0.364374 0.380317,0.96290302 0.01476,1.33613402 l -4.051212,4.142753 z"
       id="path13890"
       style="fill:#849bf0;fill-opacity:1;stroke-width:0.264583" />
    <path
       d="m 62.365997,12.28422 c 0,0.521789 -0.422565,0.944946 -0.944938,0.944946 h -7.559514 c -0.522374,0 -0.944939,-0.423157 -0.944939,-0.944946 0,-0.521777 0.422565,-0.944935 0.944939,-0.944935 h 2.834817 V 1.8898811 h -2.834817 c -0.522374,0 -0.944939,-0.423158 -0.944939,-0.94494702 0,-0.521777 0.422565,-0.944933995179089 0.944939,-0.944933995179089 h 7.559514 c 0.522373,0 0.944938,0.423156995179089 0.944938,0.944933995179089 0,0.52178902 -0.422565,0.94494702 -0.944938,0.94494702 H 58.58624 v 9.4494039 h 2.834819 c 0.522668,0 0.944938,0.422262 0.944938,0.944935 z"
       id="path14145"
       style="fill:#849bf0;fill-opacity:1;stroke-width:0.264584" />
    <path
       d="m 9.280583,11.746457 c 0.297049,0.429038 0.1901,1.017824 -0.238998,1.314873 -0.164234,0.113506 -0.351676,0.167955 -0.53711,0.167955 -0.300003,0 -0.594099,-0.142088 -0.777761,-0.406893 L 3.782509,7.1253531 1.889779,9.0623781 v 3.2214839 c 0,0.521757 -0.422542,0.944891 -0.944889,0.944891 C 0.422543,13.228753 0,12.805619 0,12.283862 V 0.94518108 C 0,0.42372008 0.422543,5.8608482e-4 0.94489,5.8608482e-4 c 0.522347,0 0.944889,0.42313399518 0.944889,0.94488999518 V 6.3579251 L 7.827816,0.28405308 c 0.363487,-0.372346 0.963491,-0.379728 1.336133,-0.01476 0.372639,0.364374 0.380316,0.96290302 0.01476,1.33613402 l -4.051212,4.142753 z"
       id="path14227"
       style="fill:#849bf0;fill-opacity:1;stroke-width:0.264583" />
    <path
       d="m 20.032712,12.28422 c 0,0.521789 -0.422564,0.944946 -0.944938,0.944946 H 11.52826 c -0.522373,0 -0.944939,-0.423157 -0.944939,-0.944946 0,-0.521777 0.422566,-0.944935 0.944939,-0.944935 h 2.834818 V 1.8898811 H 11.52826 c -0.522373,0 -0.944939,-0.423158 -0.944939,-0.94494702 0,-0.521777 0.422566,-0.944933995179085 0.944939,-0.944933995179085 h 7.559514 c 0.522374,0 0.944938,0.423156995179085 0.944938,0.944933995179085 0,0.52178902 -0.422564,0.94494702 -0.944938,0.94494702 h -2.834818 v 9.4494039 h 2.834818 c 0.522669,0 0.944938,0.422262 0.944938,0.944935 z"
       id="path14229"
       style="fill:#849bf0;fill-opacity:1;stroke-width:0.264584" />
  </g>
</svg>
