<?xml version="1.0" encoding="UTF-8" standalone="no"?>
<!-- Created with Inkscape (http://www.inkscape.org/) -->

<svg
   width="180"
   height="180"
   viewBox="0 0 47.625 47.625"
   version="1.1"
   id="svg50637"
   inkscape:version="1.1.2 (b8e25be833, 2022-02-05)"
   sodipodi:docname="as-dice.svg"
   xmlns:inkscape="http://www.inkscape.org/namespaces/inkscape"
   xmlns:sodipodi="http://sodipodi.sourceforge.net/DTD/sodipodi-0.dtd"
   xmlns="http://www.w3.org/2000/svg"
   xmlns:svg="http://www.w3.org/2000/svg">
  <sodipodi:namedview
     id="namedview50639"
     pagecolor="#505050"
     bordercolor="#eeeeee"
     borderopacity="1"
     inkscape:pageshadow="0"
     inkscape:pageopacity="0"
     inkscape:pagecheckerboard="0"
     inkscape:document-units="px"
     showgrid="false"
     units="px"
     showborder="true"
     inkscape:zoom="2.56"
     inkscape:cx="96.289062"
     inkscape:cy="133.98437"
     inkscape:window-width="1920"
     inkscape:window-height="1017"
     inkscape:window-x="-8"
     inkscape:window-y="-8"
     inkscape:window-maximized="1"
     inkscape:current-layer="layer1"
     showguides="true"
     inkscape:guide-bbox="true"
     borderlayer="true"
     inkscape:snap-object-midpoints="true"
     inkscape:snap-midpoints="true" />
  <defs
     id="defs50634" />
  <g
     inkscape:label="Capa 1"
     inkscape:groupmode="layer"
     id="layer1">
    <path
       id="path44273"
       style="fill:#f2e5b8;fill-opacity:1;stroke-width:0.264583"
       d="M 7.9375117,0 C 3.5537557,3.0059142e-6 1.7035191e-5,3.5537399 1.7035191e-5,7.937496 V 23.8125 39.687491 C 1.7035191e-5,44.071256 3.5537557,47.625 7.9375117,47.625 H 23.812498 39.687502 c 4.383758,0 7.937498,-3.553744 7.937498,-7.937509 V 23.8125 7.937496 C 47.625,3.5537369 44.07126,-3.0059104e-6 39.687502,0 H 23.812498 Z"
       sodipodi:nodetypes="sscsscsscsscs" />
    <path
       id="path44663"
       style="fill:#ecd996;fill-opacity:1;stroke-width:0.264583"
       d="M 45.300007,45.300019 2.3249605,2.3249725 A 7.9374971,7.9374986 0 0 0 0,7.9376535 V 23.8125 39.687337 A 7.9374971,7.9374986 0 0 0 7.9371776,47.625 H 23.812498 39.687334 a 7.9374971,7.9374986 0 0 0 5.612673,-2.324981 z" />
    <ellipse
       style="fill:#e0080b;fill-opacity:1;stroke-width:0.264584"
       id="circle44641"
       cx="23.812498"
       cy="-23.812511"
       transform="rotate(90)"
       inkscape:tile-x0="-240.38514"
       inkscape:tile-y0="-73.597291"
       rx="9.5728836"
       ry="9.5728817" />
  </g>
</svg>
