<?xml version="1.0" encoding="UTF-8" standalone="no"?>
<!-- Created with Inkscape (http://www.inkscape.org/) -->

<svg
   width="180mm"
   height="180mm"
   viewBox="0 0 180 180"
   version="1.1"
   id="svg5"
   inkscape:version="1.1.2 (b8e25be833, 2022-02-05)"
   sodipodi:docname="logo-alt.svg"
   inkscape:export-filename="C:\Users\Juanito\Desktop\KIRIKI\SVG\logo-alt-64.png"
   inkscape:export-xdpi="9.0311117"
   inkscape:export-ydpi="9.0311117"
   xmlns:inkscape="http://www.inkscape.org/namespaces/inkscape"
   xmlns:sodipodi="http://sodipodi.sourceforge.net/DTD/sodipodi-0.dtd"
   xmlns="http://www.w3.org/2000/svg"
   xmlns:svg="http://www.w3.org/2000/svg">
  <sodipodi:namedview
     id="namedview7"
     pagecolor="#505050"
     bordercolor="#eeeeee"
     borderopacity="1"
     inkscape:pageshadow="0"
     inkscape:pageopacity="0"
     inkscape:pagecheckerboard="0"
     inkscape:document-units="px"
     showgrid="false"
     showborder="true"
     inkscape:object-nodes="false"
     inkscape:snap-smooth-nodes="false"
     inkscape:snap-midpoints="false"
     inkscape:snap-object-midpoints="true"
     inkscape:snap-intersection-paths="false"
     inkscape:object-paths="false"
     inkscape:zoom="0.70710678"
     inkscape:cx="204.35386"
     inkscape:cy="311.12698"
     inkscape:window-width="1920"
     inkscape:window-height="1017"
     inkscape:window-x="-8"
     inkscape:window-y="-8"
     inkscape:window-maximized="1"
     inkscape:current-layer="layer1"
     showguides="true"
     inkscape:guide-bbox="true"
     inkscape:snap-others="true"
     inkscape:snap-center="true"
     inkscape:snap-nodes="true"
     inkscape:snap-bbox="true"
     inkscape:bbox-paths="false"
     width="180mm"
     inkscape:snap-global="false" />
  <defs
     id="defs2" />
  <g
     inkscape:label="Capa 1"
     inkscape:groupmode="layer"
     id="layer1">
    <g
       inkscape:label="Capa 1"
       id="layer1-1"
       transform="matrix(1.9429966,0,0,1.9429966,-97.149832,-20.049626)"
       style="stroke-width:0.514669">
      <path
         id="path39357"
         style="fill:#e0080b;fill-opacity:1;stroke-width:0.136172"
         d="m 58.83182,50 c -4.87084,2e-6 -8.81944,3.9486 -8.81944,8.819442 v 17.638885 17.63889 c 0,4.87085 3.9486,8.819453 8.81944,8.819453 H 76.4707 94.1096 c 4.87085,0 8.81945,-3.948603 8.81945,-8.819453 V 76.458327 58.819442 c 0,-4.870846 -3.9486,-8.819445 -8.81945,-8.819442 H 76.4707 Z"
         sodipodi:nodetypes="sscsscsscsscs" />
      <circle
         style="fill:#ffffff;fill-opacity:1;stroke-width:0.136173"
         id="circle44265"
         cx="62.792599"
         cy="-62.817337"
         transform="rotate(90)"
         r="4.5511217"
         inkscape:tile-x0="-240.38514"
         inkscape:tile-y0="-73.597291" />
      <path
         id="path41736"
         style="fill:#000000;fill-opacity:1;stroke-width:0.136173"
         d="m 90.12407,67.343719 a 4.5511217,4.5511217 0 0 1 -4.55112,-4.551122 4.5511217,4.5511217 0 0 1 4.55112,-4.551121 4.5511217,4.5511217 0 0 1 4.55112,4.551121 4.5511217,4.5511217 0 0 1 -4.55112,4.551122 z" />
      <path
         id="path41718"
         style="fill:#000000;fill-opacity:1;stroke-width:0.136173"
         d="m 90.12407,80.997087 a 4.5511217,4.5511217 0 0 1 -4.55112,-4.55112 4.5511217,4.5511217 0 0 1 4.55112,-4.551125 4.5511217,4.5511217 0 0 1 4.55112,4.551125 4.5511217,4.5511217 0 0 1 -4.55112,4.55112 z" />
      <path
         id="path41814"
         style="fill:#b60709;fill-opacity:1;stroke-width:0.136172"
         d="M 100.33336,100.32097 52.58329,52.570916 A 8.819444,8.8194445 0 0 0 50,58.807227 v 17.63872 17.63871 a 8.819444,8.8194445 0 0 0 8.81909,8.819623 h 17.63925 17.63871 a 8.819444,8.8194445 0 0 0 6.23631,-2.58331 z" />
      <path
         id="path41721"
         style="fill:#000000;fill-opacity:1;stroke-width:0.136173"
         d="m 90.12407,94.650447 a 4.5511217,4.5511217 0 0 1 -4.55112,-4.55112 4.5511217,4.5511217 0 0 1 4.55112,-4.55113 4.5511217,4.5511217 0 0 1 4.55112,4.55113 4.5511217,4.5511217 0 0 1 -4.55112,4.55112 z" />
      <path
         id="path41730"
         style="fill:#000000;fill-opacity:1;stroke-width:0.136173"
         d="m 62.81734,80.997087 a 4.5511217,4.5511217 0 0 1 -4.55112,-4.55112 4.5511217,4.5511217 0 0 1 4.55112,-4.551125 4.5511217,4.5511217 0 0 1 4.55112,4.551125 4.5511217,4.5511217 0 0 1 -4.55112,4.55112 z" />
      <path
         id="path41727"
         style="fill:#000000;fill-opacity:1;stroke-width:0.136173"
         d="m 62.81734,94.650447 a 4.5511217,4.5511217 0 0 1 -4.55112,-4.55112 4.5511217,4.5511217 0 0 1 4.55112,-4.55113 4.5511217,4.5511217 0 0 1 4.55112,4.55113 4.5511217,4.5511217 0 0 1 -4.55112,4.55112 z" />
      <path
         id="path41733"
         style="fill:#000000;fill-opacity:1;stroke-width:0.136173"
         d="m 62.81734,67.343719 a 4.5511217,4.5511217 0 0 1 -4.55112,-4.551122 4.5511217,4.5511217 0 0 1 4.55112,-4.551121 4.5511217,4.5511217 0 0 1 4.55112,4.551121 4.5511217,4.5511217 0 0 1 -4.55112,4.551122 z" />
      <path
         id="path41724"
         style="fill:#000000;fill-opacity:1;stroke-width:0.136173"
         d="m 76.4707,87.823767 a 4.5511217,4.5511217 0 0 1 -4.55112,-4.55112 4.5511217,4.5511217 0 0 1 4.55112,-4.55113 4.5511217,4.5511217 0 0 1 4.55113,4.55113 4.5511217,4.5511217 0 0 1 -4.55113,4.55112 z" />
      <path
         id="path41715"
         style="fill:#000000;fill-opacity:1;stroke-width:0.136173"
         d="m 76.47071,74.170397 a 4.5511217,4.5511217 0 0 1 -4.55112,-4.551117 4.5511217,4.5511217 0 0 1 4.55112,-4.551132 4.5511217,4.5511217 0 0 1 4.55111,4.551132 4.5511217,4.5511217 0 0 1 -4.55111,4.551117 z" />
    </g>
    <g
       inkscape:label="Capa 1"
       id="g7066"
       transform="matrix(1.3739061,-1.3739061,1.3739061,1.3739061,-156.822,9.3628849)"
       style="stroke-width:0.514669">
      <g
         inkscape:label="Capa 1"
         id="g7064"
         transform="rotate(45,-59.676094,58.032572)"
         style="stroke-width:0.514669">
        <path
           id="path7046"
           style="fill:#e0080b;fill-opacity:1;stroke-width:0.136172"
           d="m 49.848933,-2.4904972 a 8.8194447,8.819444 45 0 0 2e-6,12.472573 L 62.321513,22.454657 74.79409,34.927231 a 8.8194447,8.819444 45 0 0 12.472576,1e-5 L 99.739238,22.454669 112.21182,9.9820818 a 8.8194447,8.819444 45 0 0 0,-12.472586 L 99.739248,-14.96308 87.266666,-27.435658 a 8.8194447,8.819444 45 0 0 -12.472575,5e-6 l -12.472586,12.472585 z" />
        <path
           id="path7048"
           style="fill:#b60709;fill-opacity:1;stroke-width:0.136172"
           d="M 49.849075,-2.4904112 A 8.8194445,8.819444 45 0 0 49.84871,9.9820438 L 62.321531,22.454867 74.793988,34.927321 a 8.8194445,8.819444 45 0 0 12.472818,0 L 99.739268,22.454867 62.321531,-14.962867 Z" />
        <circle
           style="fill:#ffffff;fill-opacity:1;stroke-width:0.136173"
           id="circle7050"
           cx="46.292442"
           cy="-40.995098"
           transform="rotate(45)"
           r="4.5511217"
           inkscape:tile-x0="-240.38514"
           inkscape:tile-y0="-73.597291" />
        <circle
           style="fill:#ffffff;fill-opacity:1;stroke-width:0.136173"
           id="circle7052"
           cx="46.292442"
           cy="-68.301842"
           transform="rotate(45)"
           r="4.5511217"
           inkscape:tile-x0="-229.11406"
           inkscape:tile-y0="-125.27372"
           inkscape:tile-cx="-225.51299"
           inkscape:tile-cy="-121.67266"
           inkscape:tile-w="7.2021235"
           inkscape:tile-h="7.2021235" />
        <circle
           style="fill:#ffffff;fill-opacity:1;stroke-width:0.136173"
           id="use7054"
           cx="59.945801"
           cy="-68.301842"
           transform="rotate(45)"
           r="4.5511217"
           inkscape:tile-x0="-229.11406"
           inkscape:tile-y0="-125.27372" />
        <circle
           style="fill:#ffffff;fill-opacity:1;stroke-width:0.136173"
           id="use7056"
           cx="73.599174"
           cy="-68.301842"
           transform="rotate(45)"
           r="4.5511217"
           inkscape:tile-x0="-229.11406"
           inkscape:tile-y0="-125.27372" />
        <circle
           style="fill:#ffffff;fill-opacity:1;stroke-width:0.136173"
           id="use7058"
           cx="59.945801"
           cy="-40.995113"
           transform="rotate(45)"
           r="4.5511217"
           inkscape:tile-x0="-229.11406"
           inkscape:tile-y0="-125.27372" />
        <circle
           style="fill:#ffffff;fill-opacity:1;stroke-width:0.136173"
           id="circle7060"
           cx="59.945805"
           cy="-54.648453"
           transform="rotate(45)"
           r="4.5511217"
           inkscape:tile-x0="-240.38514"
           inkscape:tile-y0="-73.597291" />
        <circle
           style="fill:#ffffff;fill-opacity:1;stroke-width:0.136173"
           id="use7062"
           cx="73.599174"
           cy="-40.99511"
           transform="rotate(45)"
           r="4.5511217"
           inkscape:tile-x0="-229.11406"
           inkscape:tile-y0="-125.27372" />
      </g>
    </g>
  </g>
</svg>
